<?xml version="1.0" standalone="no"?>
<!DOCTYPE svg PUBLIC "-//W3C//DTD SVG 20010904//EN"
 "http://www.w3.org/TR/2001/REC-SVG-20010904/DTD/svg10.dtd">
<svg version="1.0" xmlns="http://www.w3.org/2000/svg"
 width="1200.000000pt" height="1200.000000pt" viewBox="0 0 1200.000000 1200.000000"
 preserveAspectRatio="xMidYMid meet">

<g transform="translate(0.000000,1200.000000) scale(0.100000,-0.100000)"
fill="#000000" stroke="none">
<path d="M1 11808 l0 -193 18 57 c46 142 167 263 309 309 l57 18 -192 0 -193
1 1 -192z"/>
<path d="M11672 11981 c142 -46 263 -167 309 -309 l18 -57 0 193 1 192 -192
-1 -193 0 57 -18z"/>
<path d="M5845 11359 c-622 -65 -1144 -482 -1339 -1070 -42 -125 -64 -233 -72
-337 -3 -42 -7 -92 -10 -110 l-5 -32 -82 69 c-222 186 -470 303 -747 353 -145
26 -381 28 -520 5 -346 -58 -637 -212 -882 -465 -364 -377 -512 -879 -412
-1402 47 -248 179 -515 354 -718 l69 -79 -107 -6 c-346 -18 -706 -177 -965
-426 -207 -199 -335 -402 -420 -668 -78 -241 -71 -2 -75 -2788 -2 -1771 0
-2518 8 -2588 31 -276 163 -430 413 -481 69 -14 544 -16 4954 -16 4854 0 4878
0 4962 20 202 49 315 160 374 368 l22 77 0 2460 c0 1353 -3 2514 -7 2581 -42
719 -587 1322 -1305 1444 -63 11 -146 20 -184 20 l-70 0 67 78 c178 209 295
444 355 714 15 66 22 146 26 273 5 154 2 198 -16 304 -38 226 -123 437 -252
631 -88 134 -281 325 -422 418 -410 273 -908 341 -1373 188 -186 -62 -441
-213 -570 -337 l-41 -40 -6 103 c-35 621 -471 1184 -1071 1383 -125 42 -219
61 -361 75 -123 11 -174 11 -290 -1z m325 -733 c320 -68 567 -304 656 -626 25
-91 25 -319 0 -410 -38 -137 -122 -294 -196 -365 l-30 -29 0 -870 0 -871 614
614 614 614 7 76 c36 382 323 694 701 761 118 21 289 9 404 -29 182 -59 341
-178 444 -334 93 -140 133 -259 143 -424 28 -454 -299 -841 -755 -894 l-97
-12 -607 -606 c-335 -333 -608 -609 -608 -613 0 -5 388 -8 863 -8 l863 0 56
48 c102 85 210 141 349 179 99 27 319 25 423 -5 342 -98 594 -398 622 -744 l7
-78 -4643 0 -4643 0 6 83 c24 344 283 645 637 743 93 26 319 26 415 0 126 -33
245 -96 356 -188 l47 -38 861 0 c473 0 861 3 861 8 0 4 -276 280 -613 613
l-612 606 -95 12 c-438 56 -750 407 -750 842 0 374 231 691 590 811 90 30 103
32 250 33 133 0 166 -3 234 -23 343 -99 590 -396 622 -747 l7 -73 613 -613
614 -614 0 866 0 866 -38 44 c-83 96 -134 186 -178 319 -26 79 -28 96 -28 245
0 153 2 164 32 255 45 136 109 239 211 341 124 124 275 205 442 238 70 14 258
12 329 -3z m-2705 -5045 c356 -77 659 -281 857 -575 135 -202 210 -417 233
-663 l6 -73 -379 0 -379 0 -16 82 c-66 336 -390 553 -722 483 -272 -57 -469
-287 -483 -565 -13 -274 142 -507 401 -602 68 -25 105 -31 232 -39 311 -20
514 -86 744 -239 104 -70 252 -211 328 -314 413 -557 346 -1331 -156 -1808
-189 -180 -412 -298 -673 -355 -117 -25 -419 -25 -535 0 -612 134 -1048 624
-1099 1235 l-7 82 379 0 379 0 17 -87 c55 -285 306 -493 593 -493 232 0 445
131 545 332 123 250 81 508 -115 703 -132 132 -229 170 -470 185 -280 17 -505
89 -715 229 -305 203 -509 510 -587 881 -25 120 -25 401 0 520 126 591 581
1016 1178 1100 99 14 340 4 444 -19z m2199 -1318 c154 -742 284 -1367 289
-1390 8 -38 12 -43 37 -43 26 0 29 4 39 48 5 26 135 651 288 1389 l278 1343
378 0 c207 0 377 -4 377 -8 0 -5 -214 -1043 -476 -2308 -261 -1264 -480 -2323
-486 -2351 l-11 -53 -387 0 -387 0 -11 54 c-6 30 -225 1087 -486 2348 -262
1262 -476 2300 -476 2306 0 9 99 12 378 12 l377 0 279 -1347z m3384 1322 c276
-54 528 -191 726 -395 223 -230 359 -526 382 -836 l7 -84 -379 0 -379 0 -17
83 c-39 189 -156 346 -319 426 -243 120 -501 83 -693 -99 -81 -77 -126 -146
-164 -252 l-27 -73 0 -1100 0 -1100 22 -70 c82 -258 318 -434 584 -435 97 0
214 30 298 77 94 52 197 159 244 254 61 124 67 170 67 552 l0 337 -290 0 -290
0 0 380 0 380 670 0 671 0 -4 -787 c-3 -759 -4 -791 -24 -873 -105 -427 -366
-760 -738 -941 -214 -104 -353 -134 -610 -134 -173 1 -200 3 -299 28 -253 64
-448 168 -630 338 -190 178 -326 409 -391 664 -44 173 -46 253 -43 1410 4
1070 4 1092 25 1180 79 334 241 595 496 798 187 151 427 252 673 286 95 13
332 6 432 -14z"/>
<path d="M1 193 l-1 -193 193 1 192 0 -57 18 c-142 46 -263 167 -309 309 l-18
57 0 -192z"/>
<path d="M11981 330 c-24 -93 -116 -209 -214 -269 -21 -13 -64 -32 -95 -42
l-57 -18 193 0 192 -1 0 190 c0 105 -1 190 -3 190 -2 0 -9 -22 -16 -50z"/>
</g>
</svg>
